{"title":"Thunderbirds Are Go 2015 S01E06 Unplugged 720P WEB-DL","uid":11879790,"size":205799290,"categoryP":"video","categoryS":"hd___tv_shows","magnet":"?xt=urn:btih:859c40dbbd63601a368bce40bcff2126b3d31416&amp;dn=Thunderbirds+Are+Go+2015+S01E06+Unplugged+720P+WEB-DL&amp;tr=udp%3A%2F%2Ftracker.openbittorrent.com%3A80&amp;tr=udp%3A%2F%2Fopen.demonii.com%3A1337&amp;tr=udp%3A%2F%2Ftracker.coppersurfer.tk%3A6969&amp;tr=udp%3A%2F%2Fexodus.desync.com%3A6969","seeders":7,"leechers":0,"uploader":"jmanwf","files":1,"time":1430653060,"description":"An anti-technology group calling themselves The Luddites power up\nan electromagnetic pulse device underneath London, crippling everything\nthat uses electricity. The result is a near catastrophe as the entire\ncity shuts down. Virgil and Grandma Tracy must find and disable the\ndevice - with the help of Lady Penelope and Parker.\n\n\n\nFormat                                   : MPEG-4\nFormat profile                           : Base Media\nCodec ID                                 : isom\nFile size                                : 196 MiB\nDuration                                 : 22mn 9s\nOverall bit rate mode                    : Variable\nOverall bit rate                         : 1 239 Kbps\nEncoded date                             : UTC 2015-05-03 00:19:29\nTagged date                              : UTC 2015-05-03 00:19:29\n\nVideo\nID                                       : 1\nFormat                                   : AVC\nFormat/Info                              : Advanced Video Codec\nFormat profile                           : &lt;a class=&quot;__cf_email__&quot; href=&quot;/cdn-cgi/l/email-protection&quot; data-cfemail=&quot;1a52737d725a562e342b&quot;&gt;[email&amp;#160;protected]&lt;/a&gt;&lt;script cf-hash='f9e31' type=&quot;text/javascript&quot;&gt;\n/* &lt;![CDATA[ */!function(){try{var t=&quot;currentScript&quot;in document?document.currentScript:function(){for(var t=document.getElementsByTagName(&quot;script&quot;),e=t.length;e--;)if(t[e].getAttribute(&quot;cf-hash&quot;))return t[e]}();if(t&amp;&amp;t.previousSibling){var e,r,n,i,c=t.previousSibling,a=c.getAttribute(&quot;data-cfemail&quot;);if(a){for(e=&quot;&quot;,r=parseInt(a.substr(0,2),16),n=2;a.length-n;n+=2)i=parseInt(a.substr(n,2),16)^r,e+=String.fromCharCode(i);e=document.createTextNode(e),c.parentNode.replaceChild(e,c)}}}catch(u){}}();/* ]]&gt; */&lt;/script&gt;\nFormat settings, CABAC                   : Yes\nFormat settings, ReFrames                : 5 frames\nCodec ID                                 : avc1\nCodec ID/Info                            : Advanced Video Coding\nDuration                                 : 22mn 9s\nBit rate                                 : 1 074 Kbps\nMaximum bit rate                         : 6 548 Kbps\nWidth                                    : 1 280 pixels\nHeight                                   : 720 pixels\nDisplay aspect ratio                     : 16:9\nFrame rate mode                          : Constant\nFrame rate                               : 25.000 fps\nColor space                              : YUV\nChroma subsampling                       : 4:2:0\nBit depth                                : 8 bits\nScan type                                : Progressive\nBits/(Pixel*Frame)                       : 0.047\nStream size                              : 170 MiB (87%)\nWriting library                          : x264 core 146 r2538 121396c\ncrf_max=0.0 / nal_hrd=none / filler=0 / ip_ratio=1.40 / aq=1:1.00\nEncoded date                             : UTC 2015-05-03 00:19:29\nTagged date                              : UTC 2015-05-03 00:19:31\nMatrix coefficients                      : BT.709-5, BT.1361, IEC 61966-2-4 709, SMPTE RP177\n\nAudio\nID                                       : 2\nFormat                                   : AAC\nFormat/Info                              : Advanced Audio Codec\nFormat profile                           : LC\nCodec ID                                 : 40\nDuration                                 : 22mn 9s\nBit rate mode                            : Variable\nBit rate                                 : 160 Kbps\nMaximum bit rate                         : 177 Kbps\nChannel(s)                               : 2 channels\nChannel positions                        : Front: L R\nSampling rate                            : 48.0 KHz\nCompression mode                         : Lossy\nStream size                              : 25.4 MiB (13%)\nLanguage                                 : English\nEncoded date                             : UTC 2015-05-02 23:48:38\nTagged date                              : UTC 2015-05-03 00:19:31","torrent":{"xt":"urn:btih:859c40dbbd63601a368bce40bcff2126b3d31416","amp;dn":"Thunderbirds+Are+Go+2015+S01E06+Unplugged+720P+WEB-DL","amp;tr":["udp%3A%2F%2Ftracker.openbittorrent.com%3A80","udp%3A%2F%2Fopen.demonii.com%3A1337","udp%3A%2F%2Ftracker.coppersurfer.tk%3A6969","udp%3A%2F%2Fexodus.desync.com%3A6969"],"infoHash":"859c40dbbd63601a368bce40bcff2126b3d31416","infoHashBuffer":{"type":"Buffer","data":[133,156,64,219,189,99,96,26,54,139,206,64,188,255,33,38,179,211,20,22]},"announce":[],"urlList":[]}}